# xmcd
#
# Track frame offsets: 
#        300
#        24756
#        60555
#
# Disc length: 1214 seconds
#
# Revision: 0
# Processed by: cddbd v1.5.2PL0 Copyright (c) Steve Scherf et al.
# Submitted via: ExactAudioCopyFreeDBPlugin 1.0
#
DISCID=1904ba03
DTITLE=Nachtreich - Von Dornen Und Selbstmord
DYEAR=2006
DGENRE=Metal
TTITLE0=Von Verzweiflung Und Hoffnung
TTITLE1=Von Wehmut Und Einsamkeit
TTITLE2=Von Dornen Und Selbstmord
EXTD=
EXTT0=
EXTT1=
EXTT2=
PLAYORDER=
